<svg id="Capa_1" enable-background="new 0 0 512 512" height="512" viewBox="0 0 512 512" width="512" xmlns="http://www.w3.org/2000/svg" xmlns:xlink="http://www.w3.org/1999/xlink"><linearGradient id="SVGID_1_" gradientTransform="matrix(1 0 0 -1 0 514)" gradientUnits="userSpaceOnUse" x1="256" x2="256" y1="-85.902" y2="451.242"><stop offset="0" stop-color="#d2deff" stop-opacity="0"/><stop offset="1" stop-color="#b7c5ff"/></linearGradient><g><path d="m465.257 165.823c-14.861-17.312-24.645-38.356-29.219-60.708-3.878-18.954-12.095-35.401-24.961-48.267-58.773-58.773-192.264-20.572-298.161 85.325s-144.097 239.387-85.324 298.16c27.937 27.937 72.756 33.955 123.469 21.212 29.453-7.401 60.532-4.287 88.29 8.03 23.202 10.295 48.799 16.173 75.724 16.566 105.676 1.543 193.748-82.552 196.839-188.195 1.479-50.505-16.354-96.822-46.657-132.123z" fill="url(#SVGID_1_)"/><g opacity=".1"><g><g><path d="m438.089 177.822c-.883 0-1.778-.234-2.588-.726-2.361-1.433-3.114-4.508-1.682-6.869 3.991-6.578 6.101-14.132 6.101-21.844 0-7.711-2.109-15.266-6.101-21.846-1.432-2.36-.679-5.436 1.682-6.868 2.362-1.431 5.437-.678 6.868 1.683 4.94 8.144 7.551 17.491 7.551 27.031 0 9.541-2.611 18.888-7.551 27.031-.941 1.551-2.59 2.408-4.28 2.408z" fill="#00c"/></g><g><path d="m421.852 163.781c-.883 0-1.778-.234-2.588-.726-2.361-1.433-3.114-4.508-1.682-6.868 1.425-2.35 2.178-5.048 2.178-7.804s-.753-5.454-2.178-7.804c-1.432-2.36-.679-5.436 1.682-6.868 2.362-1.431 5.436-.678 6.868 1.683 2.374 3.913 3.628 8.404 3.628 12.989s-1.255 9.076-3.628 12.989c-.941 1.552-2.59 2.409-4.28 2.409z" fill="#00c"/></g><g><path d="m455.173 190.814c-.883 0-1.778-.234-2.588-.726-2.361-1.433-3.114-4.508-1.682-6.868 6.364-10.492 9.728-22.539 9.728-34.836 0-12.298-3.364-24.344-9.728-34.835-1.432-2.361-.679-5.437 1.682-6.868 2.362-1.433 5.436-.679 6.868 1.681 7.313 12.056 11.179 25.895 11.179 40.022 0 14.126-3.866 27.966-11.179 40.021-.941 1.551-2.59 2.409-4.28 2.409z" fill="#00c"/></g></g><g><g><path d="m73.911 177.822c-1.69 0-3.339-.857-4.28-2.407-4.94-8.144-7.551-17.49-7.551-27.031 0-9.54 2.611-18.888 7.551-27.031 1.431-2.361 4.505-3.115 6.868-1.683 2.361 1.433 3.114 4.508 1.682 6.868-3.991 6.58-6.101 14.135-6.101 21.846 0 7.712 2.109 15.266 6.101 21.844 1.432 2.361.679 5.437-1.682 6.869-.81.491-1.705.725-2.588.725z" fill="#00c"/></g><g><path d="m90.148 163.781c-1.69 0-3.339-.857-4.28-2.408-2.374-3.913-3.629-8.404-3.629-12.989s1.255-9.076 3.629-12.989c1.432-2.361 4.506-3.114 6.868-1.683 2.361 1.433 3.114 4.508 1.682 6.868-1.425 2.35-2.178 5.048-2.178 7.804s.754 5.454 2.178 7.804c1.432 2.36.679 5.436-1.682 6.868-.81.491-1.705.725-2.588.725z" fill="#00c"/></g><g><path d="m56.827 190.814c-1.69 0-3.339-.857-4.28-2.408-7.313-12.056-11.179-25.896-11.179-40.021 0-14.128 3.866-27.967 11.179-40.022 1.432-2.36 4.506-3.115 6.868-1.681 2.361 1.432 3.114 4.507 1.682 6.868-6.364 10.491-9.729 22.537-9.729 34.835 0 12.297 3.364 24.344 9.729 34.836 1.432 2.36.679 5.436-1.682 6.868-.81.49-1.705.725-2.588.725z" fill="#00c"/></g></g></g><g><g opacity=".1"><g><path d="m394.37 82.25v395.92c0 5.523-4.477 10-10 10h-256.74c-5.523 0-10-4.477-10-10v-395.92c0-5.523 4.477-10 10-10h256.74c5.523 0 10 4.477 10 10z" fill="#00c"/></g></g><g><g><g><path d="m394.37 55.25v395.92c0 5.523-4.477 10-10 10h-256.74c-5.523 0-10-4.477-10-10v-395.92c0-5.523 4.477-10 10-10h256.74c5.523 0 10 4.477 10 10z" fill="#6583fe"/></g></g><g><path d="m276.042 249.21h19.711l98.617-98.61v-19.718z" fill="#fff"/></g><g><path d="m394.37 249.21v-61.03l-61.03 61.03z" fill="#fff"/></g><g><g><path d="m384.593 461.171h-128.593v-220.39h138.593v210.391c0 5.522-4.477 9.999-10 9.999z" fill="#fff"/></g></g><g><path d="m256 461.171h-128.593c-5.523 0-10-4.477-10-10v-395.923c0-5.523 4.477-10 10-10h128.593z" fill="#fff"/></g><g><path d="m384.37 40.25h-256.74c-8.271 0-15 6.729-15 15v316.459c0 2.762 2.239 5 5 5s5-2.238 5-5v-316.459c0-2.757 2.243-5 5-5h123.37v405.92h-123.37c-2.757 0-5-2.243-5-5v-45.461c0-2.762-2.239-5-5-5s-5 2.238-5 5v45.461c0 8.271 6.729 15 15 15h256.74c8.271 0 15-6.729 15-15v-395.92c0-8.271-6.729-15-15-15zm5 410.92c0 2.757-2.243 5-5 5h-123.37v-210.39h99.592c2.761 0 5-2.238 5-5s-2.239-5-5-5h-99.592v-185.53h123.37c2.757 0 5 2.243 5 5z" fill="#00c"/></g></g><g><path d="m220.667 276.018h-2c-2.762 0-5-2.238-5-5v-71.716c0-2.761 2.238-5 5-5h2c2.761 0 5 2.239 5 5v71.716c0 2.762-2.239 5-5 5z" fill="#00c"/></g><g><path d="m289.318 388.823h-2c-2.761 0-5-2.238-5-5v-71.716c0-2.761 2.239-5 5-5h2c2.761 0 5 2.239 5 5v71.716c0 2.761-2.239 5-5 5z" fill="#00c"/></g><g><path d="m315.86 135.88v77.81c0 2.77-2.23 5-5 5h-23.54c-2.76 0-5-2.23-5-5v-77.81c0-2.76 2.24-5 5-5h23.54c2.77 0 5 2.24 5 5z" fill="#fff"/></g><g><path d="m315.86 158.21v-22.33c0-2.76-2.23-5-5-5h-23.54c-2.76 0-5 2.24-5 5v22.33z" fill="#6583fe"/></g><g><path d="m310.86 223.69h-23.54c-5.514 0-10-4.486-10-10v-77.81c0-5.514 4.486-10 10-10h23.54c5.514 0 10 4.486 10 10v77.81c0 5.514-4.486 10-10 10zm0-87.818-23.54.008v77.81h23.54z" fill="#00c"/></g><g><g><g><g><path d="m288.927 121.384c-2.761 0-5-2.238-5-5v-3.5c0-2.762 2.239-5 5-5s5 2.238 5 5v3.5c0 2.762-2.239 5-5 5z" fill="#00c"/></g></g><g><g><path d="m304.091 121.384c-2.761 0-5-2.238-5-5v-3.5c0-2.762 2.239-5 5-5s5 2.238 5 5v3.5c0 2.762-2.239 5-5 5z" fill="#00c"/></g></g></g><g><g><g><path d="m288.927 99.896c-2.761 0-5-2.238-5-5v-3.5c0-2.762 2.239-5 5-5s5 2.238 5 5v3.5c0 2.762-2.239 5-5 5z" fill="#00c"/></g></g><g><g><path d="m304.091 99.896c-2.761 0-5-2.238-5-5v-3.5c0-2.762 2.239-5 5-5s5 2.238 5 5v3.5c0 2.762-2.239 5-5 5z" fill="#00c"/></g></g></g></g></g><g><g><g><path d="m438.089 150.822c-.883 0-1.778-.234-2.588-.726-2.361-1.433-3.114-4.508-1.682-6.869 3.991-6.578 6.101-14.132 6.101-21.844 0-7.711-2.109-15.266-6.101-21.846-1.432-2.36-.679-5.436 1.682-6.868 2.362-1.43 5.437-.679 6.868 1.683 4.94 8.144 7.551 17.491 7.551 27.031 0 9.541-2.611 18.888-7.551 27.031-.941 1.551-2.59 2.408-4.28 2.408z" fill="#00c"/></g><g><path d="m421.852 136.781c-.883 0-1.778-.234-2.588-.726-2.361-1.433-3.114-4.508-1.682-6.868 1.425-2.35 2.178-5.048 2.178-7.804s-.753-5.454-2.178-7.804c-1.432-2.36-.679-5.436 1.682-6.868 2.362-1.431 5.436-.679 6.868 1.683 2.374 3.913 3.628 8.404 3.628 12.989s-1.255 9.076-3.628 12.989c-.941 1.552-2.59 2.409-4.28 2.409z" fill="#00c"/></g><g><path d="m455.173 163.814c-.883 0-1.778-.234-2.588-.726-2.361-1.433-3.114-4.508-1.682-6.868 6.364-10.492 9.728-22.539 9.728-34.836 0-12.298-3.364-24.344-9.728-34.835-1.432-2.361-.679-5.437 1.682-6.868 2.362-1.433 5.436-.678 6.868 1.681 7.313 12.056 11.179 25.895 11.179 40.022 0 14.126-3.866 27.966-11.179 40.021-.941 1.551-2.59 2.409-4.28 2.409z" fill="#00c"/></g></g><g><g><path d="m73.911 150.822c-1.69 0-3.339-.857-4.28-2.407-4.94-8.144-7.551-17.49-7.551-27.031 0-9.54 2.611-18.888 7.551-27.031 1.431-2.362 4.505-3.115 6.868-1.683 2.361 1.433 3.114 4.508 1.682 6.868-3.991 6.58-6.101 14.135-6.101 21.846 0 7.712 2.109 15.266 6.101 21.844 1.432 2.361.679 5.437-1.682 6.869-.81.491-1.705.725-2.588.725z" fill="#00c"/></g><g><path d="m90.148 136.781c-1.69 0-3.339-.857-4.28-2.408-2.374-3.913-3.629-8.404-3.629-12.989s1.255-9.076 3.629-12.989c1.432-2.362 4.506-3.115 6.868-1.683 2.361 1.433 3.114 4.508 1.682 6.868-1.425 2.35-2.178 5.048-2.178 7.804s.754 5.454 2.178 7.804c1.432 2.36.679 5.436-1.682 6.868-.81.491-1.705.725-2.588.725z" fill="#00c"/></g><g><path d="m56.827 163.814c-1.69 0-3.339-.857-4.28-2.408-7.313-12.056-11.179-25.896-11.179-40.021 0-14.128 3.866-27.967 11.179-40.022 1.432-2.36 4.506-3.115 6.868-1.681 2.361 1.432 3.114 4.507 1.682 6.868-6.364 10.491-9.729 22.537-9.729 34.835 0 12.297 3.364 24.344 9.729 34.836 1.432 2.36.679 5.436-1.682 6.868-.81.49-1.705.725-2.588.725z" fill="#00c"/></g></g></g><g><path d="m61.823 234.987c-1.326 0-2.598-.526-3.536-1.465l-11.292-11.292c-1.953-1.952-1.953-5.118 0-7.07l11.292-11.292c1.953-1.953 5.118-1.953 7.071 0l11.293 11.292c.938.938 1.464 2.209 1.464 3.535s-.527 2.598-1.464 3.535l-11.293 11.293c-.937.937-2.209 1.464-3.535 1.464zm-4.221-16.292 4.221 4.222 4.221-4.222-4.221-4.221z" fill="#6583fe"/></g><g><path d="m73.906 445.243c-1.326 0-2.598-.526-3.536-1.465l-11.292-11.293c-.938-.938-1.464-2.209-1.464-3.535s.527-2.598 1.464-3.535l11.292-11.292c1.954-1.953 5.119-1.952 7.071 0l11.292 11.292c1.953 1.952 1.953 5.118 0 7.07l-11.292 11.293c-.937.939-2.209 1.465-3.535 1.465zm-4.221-16.293 4.221 4.222 4.221-4.222-4.221-4.221z" fill="#6583fe"/></g><g><path d="m433.093 307.794c-1.28 0-2.559-.488-3.536-1.465l-11.292-11.292c-.938-.938-1.464-2.209-1.464-3.535s.527-2.598 1.464-3.535l11.292-11.292c1.954-1.953 5.119-1.952 7.071 0l11.292 11.292c1.953 1.952 1.953 5.118 0 7.07l-11.292 11.292c-.976.977-2.255 1.465-3.535 1.465zm-4.221-16.292 4.221 4.221 4.221-4.221-4.221-4.221z" fill="#6583fe"/></g><g><path d="m447.782 364.3c-7.175 0-13.012-5.837-13.012-13.012s5.837-13.013 13.012-13.013 13.012 5.838 13.012 13.013-5.837 13.012-13.012 13.012zm0-16.024c-1.661 0-3.012 1.352-3.012 3.013s1.351 3.012 3.012 3.012 3.012-1.351 3.012-3.012-1.351-3.013-3.012-3.013z" fill="#6583fe"/></g><g><path d="m87.24 49.855c-7.175 0-13.012-5.838-13.012-13.013s5.837-13.012 13.012-13.012 13.012 5.837 13.012 13.012-5.837 13.013-13.012 13.013zm0-16.025c-1.661 0-3.012 1.351-3.012 3.012s1.351 3.013 3.012 3.013 3.012-1.352 3.012-3.013-1.352-3.012-3.012-3.012z" fill="#6583fe"/></g></g></svg>